<?xml version="1.0" standalone="no"?>
<!DOCTYPE svg PUBLIC "-//W3C//DTD SVG 20010904//EN"
 "http://www.w3.org/TR/2001/REC-SVG-20010904/DTD/svg10.dtd">
<svg version="1.0" xmlns="http://www.w3.org/2000/svg"
 width="1300.000000pt" height="770.000000pt" viewBox="0 0 1300.000000 770.000000"
 preserveAspectRatio="xMidYMid meet">

<g transform="translate(0.000000,770.000000) scale(0.100000,-0.100000)"
fill="#000000" stroke="none">
<path d="M0 3850 l0 -3850 6500 0 6500 0 0 3850 0 3850 -865 0 -864 0 -4 -72
-3 -73 -2 73 -2 72 -5630 0 -5630 0 0 -3850z m11257 3173 c-2 -16 -4 -5 -4 22
0 28 2 40 4 28 2 -13 2 -35 0 -50z m-5407 -87 c17 3 21 1 12 -5 -11 -7 -11 -9
1 -14 9 -3 18 1 21 9 13 33 63 1 78 -49 6 -21 6 -21 7 4 1 14 -5 31 -11 38
-11 11 -10 13 0 10 7 -3 41 -39 75 -81 34 -42 114 -139 177 -215 156 -188 595
-717 884 -1065 131 -159 240 -288 243 -288 3 0 2 347 -2 770 l-7 770 80 0 c51
0 83 -4 90 -12 7 -9 11 -337 13 -993 3 -849 1 -980 -12 -982 -14 -2 -219 243
-1152 1378 -139 168 -263 321 -277 339 -14 18 -37 47 -52 63 -15 17 -25 34
-22 39 3 5 1 7 -4 6 -12 -4 -138 153 -147 183 -7 22 -7 23 10 9 17 -14 17 -14
4 8 -8 12 -18 22 -23 22 -4 0 -6 12 -3 26 4 23 3 24 -11 10 -12 -12 -13 -18
-3 -30 7 -8 8 -17 3 -19 -4 -3 -20 9 -34 27 -30 37 -22 61 16 47 11 -5 32 -7
46 -5z m5407 -123 c-2 -21 -4 -4 -4 37 0 41 2 58 4 38 2 -21 2 -55 0 -75z
m-10 -766 c-1 -67 -3 -9 -3 128 0 138 2 192 3 122 2 -71 2 -183 0 -250z
m-5510 227 c-2 -13 -1 -21 4 -18 4 2 7 -5 6 -16 -3 -41 -28 -15 -32 33 -2 28
4 39 17 31 5 -3 8 -17 5 -30z m-50 -15 c-1 -10 -5 -19 -10 -19 -5 0 -7 6 -4
14 3 7 0 19 -6 25 -9 9 -8 11 5 6 9 -4 16 -15 15 -26z m-7 -69 c-9 -38 -11
-38 -14 2 -1 14 2 24 6 22 4 -3 8 0 8 7 0 7 2 10 4 8 3 -2 1 -20 -4 -39z m140
4 c0 -8 5 -14 10 -14 6 0 10 -8 8 -17 -2 -10 3 -18 12 -18 11 0 15 -11 14 -37
-1 -21 3 -35 7 -32 5 3 12 -9 15 -26 4 -17 9 -28 12 -25 10 10 9 50 -2 58 -7
6 -6 7 3 5 8 -2 23 -20 33 -39 10 -18 22 -34 27 -34 14 0 81 -81 74 -89 -3 -3
-2 -6 4 -6 11 0 75 -76 569 -675 472 -573 766 -929 782 -948 27 -30 2 -36
-102 -23 l-100 11 -289 350 c-158 193 -347 422 -419 509 -72 87 -131 165 -131
172 0 7 -4 11 -8 9 -6 -4 -43 40 -256 304 -29 35 -49 69 -46 74 3 6 2 7 -4 4
-17 -11 -47 36 -46 73 1 32 0 33 -11 12 -11 -21 -13 -21 -49 28 -20 27 -37 53
-36 56 0 4 -5 10 -13 15 -8 5 -13 28 -13 58 -1 27 2 48 6 45 4 -2 7 13 7 34
l-1 37 -18 -54 c-14 -39 -16 -58 -8 -72 12 -24 1 -25 -17 -1 -12 15 -15 15
-24 2 -5 -8 -7 -23 -4 -32 3 -10 2 -18 -3 -18 -13 0 -14 42 -1 57 6 8 8 16 4
20 -3 3 0 16 8 29 14 20 13 24 -4 39 -11 10 -20 29 -20 42 0 16 -4 22 -12 17
-7 -4 -3 3 10 16 13 12 21 29 18 37 -3 8 -6 24 -6 34 0 11 -4 17 -10 14 -5 -3
-7 0 -4 9 7 18 34 10 34 -10z m-65 -14 c16 -17 16 -20 3 -15 -9 4 -19 13 -22
21 -7 19 -2 18 19 -6z m-9 -46 c-7 -35 -10 -37 -24 -14 -10 17 -10 20 3 20 8
0 15 5 15 10 0 6 2 10 5 10 3 0 3 -12 1 -26z m49 7 c3 -5 2 -12 -3 -15 -5 -3
-9 1 -9 9 0 17 3 19 12 6z m-7 -99 c18 -14 25 -42 11 -42 -5 0 -14 11 -21 25
-6 13 -14 22 -19 20 -4 -3 -5 5 -1 17 4 16 7 18 10 8 2 -8 11 -21 20 -28z
m-86 -32 c4 0 8 -8 8 -17 0 -13 -6 -9 -20 12 -11 17 -20 35 -19 40 0 6 5 0 11
-12 6 -13 15 -23 20 -23z m-17 -78 c-1 -15 -7 -37 -13 -47 -11 -18 -12 -16 -6
10 14 68 23 87 19 37z m5562 -34 c-3 -8 -6 -5 -6 6 -1 11 2 17 5 13 3 -3 4
-12 1 -19z m-5440 -50 c-3 -7 -5 -2 -5 12 0 14 2 19 5 13 2 -7 2 -19 0 -25z
m-77 -18 c0 -5 -2 -10 -4 -10 -3 0 -8 5 -11 10 -3 6 -1 10 4 10 6 0 11 -4 11
-10z m78 -16 c4 2 7 -14 8 -36 1 -48 -11 -37 -19 17 -4 22 -4 34 -1 27 3 -6 9
-10 12 -8z m12 -103 c0 -6 -4 -12 -8 -15 -5 -3 -9 1 -9 9 0 8 4 15 9 15 4 0 8
-4 8 -9z m-2 -76 c-3 -3 -9 2 -12 12 -6 14 -5 15 5 6 7 -7 10 -15 7 -18z m-8
-21 c0 -8 -19 -13 -24 -6 -3 5 1 9 9 9 8 0 15 -2 15 -3z m-47 -48 c-21 -30
-33 -33 -33 -9 0 9 3 13 7 10 3 -4 13 2 21 14 8 11 16 18 19 15 3 -2 -3 -16
-14 -30z m5474 -28 c-3 -8 -6 -5 -6 6 -1 11 2 17 5 13 3 -3 4 -12 1 -19z m0
-80 c-2 -13 -4 -5 -4 17 -1 22 1 32 4 23 2 -10 2 -28 0 -40z m-5543 6 c3 -8 2
-12 -4 -9 -6 3 -10 10 -10 16 0 14 7 11 14 -7z m54 -25 c-3 -8 -7 -3 -11 10
-4 17 -3 21 5 13 5 -5 8 -16 6 -23z m69 1 c-1 -11 -5 -20 -9 -20 -10 0 -10 4
-2 24 8 22 13 20 11 -4z m-5 -72 c-6 -6 -7 0 -4 19 5 21 7 23 10 9 2 -10 0
-22 -6 -28z m5425 -40 c-2 -13 -4 -5 -4 17 -1 22 1 32 4 23 2 -10 2 -28 0 -40z
m-5420 -35 c1 -19 -1 -22 -8 -12 -8 12 -10 12 -19 -1 -5 -8 -10 -10 -10 -4 0
5 5 15 12 22 7 7 8 12 2 12 -6 0 -11 6 -11 14 0 26 32 -4 34 -31z m-80 -5 c-3
-7 -5 -2 -5 12 0 14 2 19 5 13 2 -7 2 -19 0 -25z m26 -65 c-7 -3 -13 -12 -13
-21 0 -15 2 -15 10 -2 13 20 13 4 0 -20 -10 -19 -3 -53 10 -45 4 2 18 -7 30
-20 20 -21 21 -27 10 -38 -7 -6 -10 -7 -7 -1 8 14 -16 47 -36 50 -11 1 -21
-12 -32 -44 -10 -33 -13 -37 -8 -12 4 19 7 63 8 97 0 33 3 59 7 57 4 -2 10 1
13 7 4 5 10 7 14 3 3 -4 0 -9 -6 -11z m-66 -40 c0 -9 -4 -10 -14 -2 -7 6 -13
12 -13 14 0 1 6 2 13 2 8 0 14 -6 14 -14z m-7 -51 c0 -15 -2 -15 -10 -2 -13
20 -13 33 0 25 6 -3 10 -14 10 -23z m38 3 c-3 -3 -9 2 -12 12 -6 14 -5 15 5 6
7 -7 10 -15 7 -18z m54 -77 c-7 -7 -12 -8 -12 -2 0 14 12 26 19 19 2 -3 -1
-11 -7 -17z m-41 -31 c-10 -9 -11 -8 -5 6 3 10 9 15 12 12 3 -3 0 -11 -7 -18z
m78 -11 c-3 -3 -11 5 -18 17 -13 21 -12 21 5 5 10 -10 16 -20 13 -22z m-94
-26 c-4 -6 -4 -18 0 -28 5 -14 7 -14 16 -2 9 12 10 12 5 -3 -3 -10 -6 -23 -6
-29 0 -5 -5 -8 -11 -6 -19 6 -22 78 -3 78 3 0 2 -5 -1 -10z m95 -34 c-1 -20
-2 -20 -15 4 -19 33 -19 46 0 30 8 -7 15 -22 15 -34z m-15 -58 c7 -33 7 -33
15 -8 7 20 8 16 9 -22 1 -28 -3 -48 -10 -48 -5 0 -8 4 -5 9 3 5 -1 22 -10 39
-18 37 -26 75 -15 67 5 -2 12 -19 16 -37z m-55 -4 c0 -8 5 -12 10 -9 6 4 10
-8 10 -29 0 -20 -4 -36 -9 -36 -4 0 -6 12 -3 26 3 15 1 24 -4 21 -5 -3 -14 6
-21 19 -9 19 -8 24 3 24 8 0 14 -7 14 -16z m5477 -66 c-2 -18 -4 -6 -4 27 0
33 2 48 4 33 2 -15 2 -42 0 -60z m-5425 -5 c-3 -16 -7 -22 -10 -15 -4 13 4 42
11 42 2 0 2 -12 -1 -27z m25 -55 c-3 -7 -5 -2 -5 12 0 14 2 19 5 13 2 -7 2
-19 0 -25z m5400 -231 c-1 -45 -3 -5 -3 88 0 94 2 130 3 82 2 -48 2 -125 0
-170z m-5422 233 c3 -6 -1 -7 -9 -4 -18 7 -21 14 -7 14 6 0 13 -4 16 -10z
m-59 -47 c-6 -35 -5 -36 7 -15 12 21 15 22 26 8 7 -9 17 -13 22 -10 5 3 6 -3
2 -12 -6 -16 -7 -15 -20 1 -7 10 -16 16 -19 12 -12 -12 -13 -61 -1 -77 6 -8 7
-12 3 -8 -5 4 -15 0 -22 -10 -12 -15 -14 -13 -15 18 -3 71 5 130 18 130 3 0 2
-17 -1 -37z m81 -15 c-3 -8 -6 -5 -6 6 -1 11 2 17 5 13 3 -3 4 -12 1 -19z
m-46 -61 c-10 -9 -11 -8 -5 6 3 10 9 15 12 12 3 -3 0 -11 -7 -18z m46 -39 c-3
-7 -5 -2 -5 12 0 14 2 19 5 13 2 -7 2 -19 0 -25z m-51 -22 c11 -12 11 -16 2
-23 -25 -15 -38 -12 -28 7 5 9 6 20 3 24 -3 3 -3 6 1 6 4 0 14 -6 22 -14z m32
-61 c0 -29 -17 -44 -28 -25 -6 9 9 38 26 49 1 1 2 -10 2 -24z m-50 3 c-2 -6
-10 -13 -16 -14 -7 -1 -8 0 -2 3 5 2 8 9 4 14 -3 5 0 9 6 9 7 0 10 -5 8 -12z
m69 -35 c-3 -10 -5 -4 -5 12 0 17 2 24 5 18 2 -7 2 -21 0 -30z m-76 -30 c-12
-20 -14 -14 -5 12 4 9 9 14 11 11 3 -2 0 -13 -6 -23z m5476 -130 c-3 -10 -5
-4 -5 12 0 17 2 24 5 18 2 -7 2 -21 0 -30z m-10 -686 c-1 -73 -3 -10 -3 138 0
149 2 208 3 132 2 -76 2 -198 0 -270z m-2264 -174 c-7 -2 -19 -2 -25 0 -7 3
-2 5 12 5 14 0 19 -2 13 -5z m2254 -520 c-1 -65 -3 -12 -3 117 0 129 2 182 3
118 2 -65 2 -171 0 -235z m-10 -645 c-1 -68 -3 -15 -3 117 0 132 2 187 3 123
2 -64 2 -172 0 -240z m-5022 178 c90 -42 161 -134 179 -233 5 -32 4 -33 -27
-33 -41 0 -50 7 -67 50 -32 85 -98 139 -174 144 -35 2 -53 -4 -86 -26 -23 -16
-39 -25 -36 -20 2 4 0 14 -5 22 -7 11 -9 7 -8 -15 2 -50 -1 -65 -12 -65 -6 0
-9 7 -6 15 4 8 2 17 -3 20 -6 4 -10 1 -10 -4 0 -6 -4 -11 -9 -11 -5 0 -4 11 2
25 10 20 13 21 18 7 4 -12 8 -6 11 18 3 19 2 44 -3 55 l-8 20 -1 -20 c0 -17
-2 -17 -10 -5 -7 11 -10 4 -10 -27 0 -23 -4 -44 -9 -47 -5 -3 -8 0 -7 7 0 6
-3 12 -9 12 -5 0 -9 -3 -7 -7 1 -5 -2 -8 -8 -8 -13 0 -13 6 1 31 5 11 15 16
21 13 7 -5 9 -2 5 9 -7 18 39 62 88 83 49 21 133 17 190 -10z m-32 -110 c44
-19 83 -63 95 -108 l10 -38 -41 7 c-44 6 -60 19 -52 40 2 7 1 12 -3 11 -4 -1
-20 4 -36 11 -24 9 -33 9 -54 -5 -22 -14 -24 -21 -18 -63 9 -68 12 -84 20
-109 7 -21 6 -22 -11 -14 -10 6 -29 22 -42 36 -26 27 -23 30 26 29 19 -1 -6
58 -39 91 -16 16 -26 31 -23 34 3 3 11 0 17 -6 7 -7 19 -12 27 -12 12 0 12 3
3 12 -7 7 -12 19 -12 28 0 13 2 13 11 0 9 -13 10 -13 6 0 -2 8 -12 17 -22 18
-10 3 -15 0 -11 -7 4 -6 2 -11 -3 -11 -17 0 -13 14 8 32 14 12 21 13 25 5 2
-7 5 -4 5 7 1 12 6 16 16 12 8 -3 15 -1 15 4 0 14 46 12 83 -4z m-233 -81 c0
-8 -4 -15 -10 -15 -5 0 -10 7 -10 15 0 8 5 15 10 15 6 0 10 -7 10 -15z m30
-11 c0 -9 -5 -12 -12 -8 -9 6 -9 3 0 -9 15 -18 8 -37 -14 -37 -8 0 -12 4 -9
10 3 6 -1 7 -9 4 -9 -3 -16 -1 -16 5 0 6 6 11 14 11 8 0 18 9 21 20 8 24 25
27 25 4z m204 -39 c28 -26 47 -35 73 -35 31 0 34 -2 28 -22 -18 -62 -68 -100
-125 -96 -31 3 -35 6 -37 33 -2 26 -2 27 6 9 12 -28 31 -40 31 -19 0 9 -4 13
-10 10 -5 -3 -10 3 -10 14 0 12 -4 21 -10 21 -5 0 -10 5 -10 11 0 6 8 8 19 4
11 -3 28 2 42 14 27 22 18 41 -11 23 -24 -15 -40 -15 -40 -1 0 5 6 7 13 3 10
-6 10 -4 0 7 -14 14 -18 59 -5 59 4 0 24 -16 46 -35z m-62 0 c6 -29 -7 -34
-15 -6 -4 17 0 31 9 31 1 0 4 -11 6 -25z m-142 -66 c7 -11 9 -23 6 -27 -3 -3
-6 0 -6 6 0 6 -7 18 -16 26 -8 9 -11 16 -5 16 6 0 15 -9 21 -21z m85 11 c-3
-5 -12 -10 -18 -10 -7 0 -6 4 3 10 19 12 23 12 15 0z m312 4 c20 -5 22 -11 17
-43 -23 -144 -173 -219 -318 -157 -34 14 -37 18 -25 33 10 11 10 14 2 9 -8 -4
-13 -1 -13 8 0 9 -5 16 -12 16 -6 0 -8 3 -5 7 4 3 2 12 -3 19 -6 6 -12 26 -15
44 l-4 31 47 -43 c49 -44 66 -79 56 -113 -5 -17 -3 -16 12 4 12 17 14 26 6 29
-19 6 -14 32 6 32 15 0 15 -2 2 -11 -11 -7 -6 -9 20 -4 95 17 141 52 155 115
7 31 24 37 72 24z m-421 -31 c-7 -7 -26 7 -26 19 0 6 6 6 15 -2 9 -7 13 -15
11 -17z m14 -37 c0 -2 -7 -9 -15 -16 -13 -11 -14 -10 -9 4 5 14 24 23 24 12z
m35 -76 c3 -18 2 -20 -10 -10 -8 6 -11 18 -8 26 7 18 12 13 18 -16z m5222
-412 c-1 -73 -3 -14 -3 132 0 146 2 205 3 133 2 -73 2 -193 0 -265z m-5299
271 c14 -1 13 -2 -2 -6 -15 -4 -16 -7 -5 -14 12 -7 11 -9 -2 -9 -11 0 -16 9
-16 33 0 17 2 24 4 15 3 -10 12 -19 21 -19z m73 -3 c6 16 8 14 8 -8 1 -16 -2
-28 -5 -28 -9 0 -43 43 -44 55 0 5 8 -1 17 -14 16 -23 17 -23 24 -5z m188 -20
c8 -10 9 -16 1 -21 -6 -3 -7 -12 -3 -18 4 -8 1 -7 -9 1 -13 10 -17 10 -21 0
-3 -7 -6 2 -6 20 -1 34 17 43 38 18z m-134 -18 c6 -4 2 -8 -7 -8 -10 0 -18 7
-18 17 0 9 3 12 8 7 4 -5 12 -12 17 -16z m183 15 c-22 -6 -24 -43 -2 -43 8 0
12 5 9 10 -3 6 -1 10 4 10 6 0 11 -7 11 -15 0 -8 -9 -15 -20 -15 -11 0 -23 7
-26 15 -9 23 3 45 23 44 17 -1 17 -2 1 -6z m69 -10 c-18 -5 -18 -5 0 -20 16
-13 16 -14 1 -9 -10 3 -18 1 -18 -4 0 -5 8 -11 18 -13 13 -4 11 -5 -5 -6 -19
-1 -23 4 -23 29 0 25 4 30 23 29 18 -1 18 -2 4 -6z m78 -34 c0 -17 -6 -25 -22
-27 -20 -3 -23 1 -23 32 0 32 2 35 23 27 14 -5 22 -17 22 -32z m-260 21 c3 -6
-1 -7 -9 -4 -18 7 -21 14 -7 14 6 0 13 -4 16 -10z m355 -146 c0 -2 -9 0 -20 6
-11 6 -20 13 -20 16 0 2 9 0 20 -6 11 -6 20 -13 20 -16z m1217 -122 c17 -21
-2 -56 -28 -49 -12 3 -19 0 -19 -9 0 -8 -4 -14 -10 -14 -5 0 -10 22 -10 49 0
47 1 48 28 43 15 -2 32 -11 39 -20z m84 -2 c20 -11 26 -45 9 -55 -8 -5 -7 -11
1 -21 6 -8 9 -17 6 -20 -3 -3 -12 3 -19 15 -15 24 -38 28 -38 6 0 -8 -4 -15
-10 -15 -5 0 -10 23 -10 50 0 44 3 50 21 50 11 0 29 -5 40 -10z m127 -22 c18
-18 15 -77 -4 -85 -46 -17 -104 46 -74 81 15 19 61 21 78 4z m100 -8 c6 0 12
-4 12 -8 0 -5 -14 -6 -31 -4 -24 3 -30 1 -27 -9 3 -8 14 -15 26 -17 12 -2 22
-8 22 -14 0 -6 -10 -8 -26 -4 -22 6 -25 4 -19 -14 4 -11 2 -20 -4 -20 -7 0
-11 22 -11 51 0 48 1 51 23 45 12 -3 28 -6 35 -6z m102 -22 c0 -6 -11 -7 -25
-4 -18 5 -25 2 -25 -9 0 -9 9 -15 25 -15 14 0 25 -5 25 -11 0 -7 -10 -9 -25
-7 -35 7 -33 -18 3 -27 15 -4 21 -10 14 -12 -7 -3 -24 -2 -37 1 -22 6 -25 12
-25 54 l0 48 35 -4 c19 -2 35 -9 35 -14z m74 -4 c26 -10 18 -22 -11 -17 l-28
4 28 -23 c33 -29 36 -58 5 -58 -13 0 -30 5 -38 11 -11 8 -7 9 18 4 38 -8 44
11 8 25 -32 12 -41 28 -26 45 14 17 21 18 44 9z m92 -19 c18 -15 18 -15 -8 -9
-35 8 -38 -13 -4 -25 28 -11 39 -34 23 -50 -15 -15 -29 -14 -53 4 -18 14 -17
14 16 9 l35 -6 -35 30 c-29 26 -32 32 -21 46 17 20 22 20 47 1z m59 -49 c0
-24 -3 -48 -8 -52 -4 -4 -7 16 -7 44 0 29 3 52 8 52 4 0 7 -20 7 -44z m110 18
c20 -20 16 -63 -8 -78 -23 -15 -71 12 -75 42 -7 47 48 70 83 36z m81 -29 c23
-43 32 -44 37 -2 2 20 4 11 5 -23 l1 -55 -24 30 c-14 17 -25 33 -25 38 0 4 -4
7 -9 7 -6 0 -12 -15 -14 -32 -3 -23 -4 -16 -5 20 -1 28 2 52 6 52 5 0 17 -16
28 -35z m148 -42 c9 -25 14 -49 11 -51 -2 -3 -7 3 -11 12 -7 19 -45 21 -62 4
-19 -19 -15 7 8 53 12 22 25 37 29 34 5 -3 16 -26 25 -52z m89 -51 c25 -8 27
-10 10 -11 -45 -2 -53 8 -51 63 l2 51 3 -46 c4 -42 7 -47 36 -57z m133 68 c13
0 24 -5 24 -11 0 -6 -7 -9 -15 -5 -12 4 -15 -4 -15 -39 0 -25 -4 -45 -10 -45
-5 0 -10 20 -10 45 0 33 -4 45 -15 45 -8 0 -15 5 -15 11 0 6 7 8 16 5 9 -3 27
-6 40 -6z m103 -59 c23 -55 27 -74 8 -50 -19 24 -55 30 -67 11 -15 -27 -12 4
6 48 9 22 20 40 24 40 4 0 17 -22 29 -49z m110 23 c8 -3 11 -12 8 -26 -4 -12
-1 -28 5 -35 18 -22 -5 -37 -44 -29 -32 6 -33 7 -33 56 0 52 2 53 64 34z m61
-49 c0 -41 2 -45 25 -45 14 0 25 -4 25 -8 0 -4 -16 -6 -35 -4 -35 4 -35 5 -35
53 0 27 5 49 10 49 6 0 10 -20 10 -45z m117 23 c22 3 33 1 30 -5 -4 -6 -18 -8
-32 -5 -18 3 -25 0 -25 -12 0 -10 9 -16 25 -16 14 0 25 -5 25 -10 0 -6 -11 -8
-25 -4 -18 4 -25 2 -25 -9 0 -8 12 -18 28 -22 15 -4 21 -10 14 -12 -7 -3 -24
-2 -37 1 -23 6 -25 11 -24 59 0 28 3 47 5 42 2 -6 21 -9 41 -7z m168 -31 c7
-6 3 -8 -12 -4 -21 5 -23 1 -25 -41 l-2 -47 -3 48 c-3 32 -9 47 -18 47 -8 0
-16 4 -20 9 -7 13 67 2 80 -12z m85 -7 c11 -7 7 -10 -17 -10 -40 0 -43 -15 -5
-28 l27 -10 -27 -1 c-40 -1 -38 -31 2 -31 17 0 30 -5 30 -11 0 -6 -7 -8 -16
-5 -9 3 -24 6 -35 6 -16 0 -19 7 -19 50 0 45 2 50 23 50 12 0 29 -5 37 -10z
m77 -42 l28 -42 6 40 c6 38 6 37 8 -13 0 -29 -2 -53 -6 -53 -5 0 -19 17 -33
38 l-25 37 -5 -35 c-6 -33 -7 -31 -11 18 -2 28 -1 52 3 52 4 0 20 -19 35 -42z
m113 -13 c27 -43 44 -45 38 -5 -3 17 -1 30 4 30 4 0 8 -22 8 -50 0 -27 -4 -50
-9 -50 -5 0 -20 17 -33 38 l-23 37 -3 -32 c-5 -52 -22 -38 -22 17 0 28 4 50 9
50 5 0 19 -16 31 -35z m100 -35 c0 -27 -4 -50 -10 -50 -5 0 -10 23 -10 50 0
28 5 50 10 50 6 0 10 -22 10 -50z m88 20 c5 -13 3 -13 -12 -1 -12 10 -20 11
-28 3 -7 -7 -1 -15 21 -27 41 -21 39 -50 -3 -50 -16 0 -31 6 -34 13 -3 11 -1
11 16 1 32 -20 40 0 9 23 -37 27 -37 61 0 56 14 -2 29 -10 31 -18z m136 -10
c27 -10 34 -38 14 -58 -8 -8 -8 -15 2 -27 8 -10 9 -15 2 -15 -6 0 -16 9 -22
20 -13 25 -37 26 -43 3 -3 -10 -5 6 -6 35 -1 56 5 61 53 42z m66 -44 c0 -31 5
-46 16 -50 29 -11 34 -6 34 34 0 22 5 40 11 40 6 0 9 -17 7 -42 -3 -39 -6 -43
-33 -46 -19 -3 -33 2 -42 14 -15 21 -18 94 -3 94 6 0 10 -20 10 -44z m1111
-666 c6 0 7 -5 2 -12 -4 -7 -11 -44 -14 -83 -3 -38 -5 128 -5 370 1 416 1 421
3 83 2 -241 7 -358 14 -358z m-944 666 c4 -6 9 -28 10 -49 l3 -38 -38 3 -37 3
-3 51 -3 51 31 -5 c16 -2 33 -9 37 -16z m104 -15 c4 -3 10 -23 13 -43 8 -43
-2 -52 -47 -44 -32 6 -32 7 -29 56 4 48 5 50 30 44 15 -4 30 -9 33 -13z m88
-7 c40 -8 40 -22 0 -16 -24 3 -30 1 -27 -9 3 -8 14 -15 26 -17 12 -2 22 -7 22
-11 0 -5 -11 -6 -25 -3 -18 3 -25 0 -25 -11 0 -8 13 -17 32 -21 17 -3 29 -9
26 -12 -3 -3 -22 -2 -42 1 -36 7 -36 8 -36 56 0 52 0 52 49 43z m122 -24 c21
-12 25 -40 7 -58 -8 -8 -8 -15 2 -27 8 -10 9 -15 2 -15 -6 0 -16 9 -22 20 -13
23 -40 27 -40 5 0 -8 -4 -15 -8 -15 -5 0 -8 22 -8 50 1 45 3 50 24 50 13 0 32
-5 43 -10z"/>
<path d="M5930 6889 c0 -5 -6 -7 -12 -4 -7 4 -6 1 3 -7 9 -7 18 -20 22 -28 3
-8 5 0 4 18 -1 17 -5 32 -9 32 -4 0 -8 -5 -8 -11z"/>
<path d="M5932 6805 c1 -17 -1 -36 -5 -42 -4 -6 -3 -14 2 -18 15 -9 26 64 12
78 -9 9 -11 4 -9 -18z"/>
<path d="M5961 6814 c0 -11 3 -14 6 -6 3 7 2 16 -1 19 -3 4 -6 -2 -5 -13z"/>
<path d="M5900 6801 c0 -5 5 -13 10 -16 6 -3 10 -2 10 4 0 5 -4 13 -10 16 -5
3 -10 2 -10 -4z"/>
<path d="M6035 6640 c-3 -5 -1 -10 4 -10 6 0 11 5 11 10 0 6 -2 10 -4 10 -3 0
-8 -4 -11 -10z"/>
<path d="M5940 5850 c0 -5 5 -10 10 -10 6 0 10 5 10 10 0 6 -4 10 -10 10 -5 0
-10 -4 -10 -10z"/>
<path d="M5940 5815 c14 -17 30 -20 30 -4 0 5 -4 7 -10 4 -5 -3 -10 -1 -10 4
0 6 -5 11 -11 11 -8 0 -8 -5 1 -15z"/>
<path d="M6101 5754 c0 -11 3 -14 6 -6 3 7 2 16 -1 19 -3 4 -6 -2 -5 -13z"/>
<path d="M6061 5704 c0 -11 3 -14 6 -6 3 7 2 16 -1 19 -3 4 -6 -2 -5 -13z"/>
<path d="M5963 2438 c-8 -10 -8 -19 1 -35 11 -22 12 -22 23 -4 16 25 -6 61
-24 39z m17 -23 c0 -8 -2 -15 -4 -15 -2 0 -6 7 -10 15 -3 8 -1 15 4 15 6 0 10
-7 10 -15z"/>
<path d="M6061 2333 c-1 -17 16 -25 25 -12 4 7 3 9 -4 5 -5 -3 -13 0 -15 6 -4
9 -6 10 -6 1z"/>
<path d="M6123 2156 c0 -8 7 -13 16 -11 9 1 21 -2 28 -7 7 -6 14 -4 19 4 4 7
4 10 -1 6 -4 -4 -14 -3 -22 3 -7 6 -13 8 -13 4 0 -4 -6 -2 -13 4 -10 8 -14 7
-14 -3z"/>
<path d="M6140 2115 c0 -8 2 -15 4 -15 2 0 6 7 10 15 3 8 1 15 -4 15 -6 0 -10
-7 -10 -15z"/>
<path d="M5970 2136 c0 -2 8 -10 18 -17 15 -13 16 -12 3 4 -13 16 -21 21 -21
13z"/>
<path d="M6000 2080 c0 -5 5 -10 11 -10 5 0 7 5 4 10 -3 6 -8 10 -11 10 -2 0
-4 -4 -4 -10z"/>
<path d="M6117 2037 c-3 -9 -2 -27 2 -39 8 -21 10 -21 16 -5 4 10 3 28 -2 39
-8 19 -10 20 -16 5z"/>
<path d="M6025 2010 c3 -5 11 -10 16 -10 6 0 7 5 4 10 -3 6 -11 10 -16 10 -6
0 -7 -4 -4 -10z"/>
<path d="M6120 1880 c0 -5 5 -10 10 -10 6 0 10 5 10 10 0 6 -4 10 -10 10 -5 0
-10 -4 -10 -10z"/>
<path d="M6310 1840 c0 -13 5 -20 13 -17 6 2 12 10 12 17 0 7 -6 15 -12 18 -8
2 -13 -5 -13 -18z"/>
<path d="M7610 1580 c0 -19 20 -27 33 -13 8 7 -11 33 -24 33 -5 0 -9 -9 -9
-20z"/>
<path d="M7700 1566 c0 -11 9 -16 26 -16 31 0 28 23 -4 28 -15 2 -22 -2 -22
-12z"/>
<path d="M7812 1558 c-16 -16 -15 -28 4 -49 13 -14 21 -16 35 -8 24 12 24 31
1 52 -22 20 -25 20 -40 5z"/>
<path d="M8353 1483 c-22 -8 -15 -53 10 -62 41 -16 63 22 29 52 -20 18 -20 18
-39 10z"/>
<path d="M8595 1430 c-4 -7 -1 -16 6 -21 17 -10 26 8 11 23 -6 6 -12 6 -17 -2z"/>
<path d="M8920 1376 c0 -8 7 -16 15 -20 17 -6 18 -4 9 18 -8 20 -24 21 -24 2z"/>
<path d="M9020 1375 c0 -9 9 -15 25 -15 28 0 34 15 9 24 -25 10 -34 7 -34 -9z"/>
<path d="M9020 1335 c0 -8 6 -15 13 -16 6 0 20 -2 30 -4 21 -4 21 -1 1 19 -20
20 -44 21 -44 1z"/>
<path d="M9970 1226 c0 -15 37 -32 47 -22 3 3 3 12 0 21 -8 19 -47 20 -47 1z"/>
<path d="M10190 1196 c0 -11 9 -16 26 -16 31 0 28 23 -4 28 -15 2 -22 -2 -22
-12z"/>
<path d="M10190 1156 c0 -17 35 -30 51 -20 9 5 6 11 -6 21 -24 17 -45 17 -45
-1z"/>
<path d="M10300 1176 c0 -11 9 -16 26 -16 31 0 28 23 -4 28 -15 2 -22 -2 -22
-12z"/>
<path d="M10300 1136 c0 -13 20 -26 41 -26 15 0 10 27 -7 34 -24 9 -34 7 -34
-8z"/>
<path d="M10514 1145 c-8 -19 -5 -22 20 -27 27 -4 31 18 6 32 -16 9 -21 8 -26
-5z"/>
</g>
</svg>
